Coordinates
version=1
nRows=10
nColumns=33
inDegrees=yes

Units are S.I. units (second, meters, Newtons, ...)
Angles are in degrees.

endheader
time	ground_thorax_rot_x	ground_thorax_rot_y	ground_thorax_rot_z	ground_thorax_tx	ground_thorax_ty	ground_thorax_tz	clav_prot_r	clav_elev_r	scapula_abduction_r	scapula_elevation_r	scapula_upward_rot_r	scapula_winging_r	shoulder_elv_r	plane_of_elev_r	axial_rot_r	elbow_flexion_r	pro_sup_r	wrist_flex_r	wrist_dev_r	clav_prot_l	clav_elev_l	scapula_abduction_l	scapula_elevation_l	scapula_upward_rot_l	scapula_winging_l	shoulder_elv_l	plane_of_elev_l	axial_rot_l	elbow_flexion_l	pro_sup_l	wrist_flex_l	wrist_dev_l
      1.48000000	      2.11922140	      0.72721912	     -0.72988805	     -0.15519614	      0.98677406	      0.00692351	     -8.85479476	     -0.34895701	    -11.23340843	      5.06144931	      4.42046450	     -0.34157530	     49.09460221	    -47.91362381	     45.68151875	     79.69736193	      5.66298369	     35.16567931	    -18.31237412	     -9.22123836	      1.16940172	     12.42203240	     -6.47190604	      1.32794094	     -0.87721912	     40.82024529	    -47.16406469	    -27.36100301	     75.05493751	     12.63324112	    -23.74618913	    -24.99999983
      1.49000000	      2.10274061	      0.74575826	     -0.55751530	     -0.15540170	      0.98720065	      0.00682186	     -8.85724596	     -0.38251422	    -11.20142527	      5.01124503	      4.46929025	     -0.35394379	     49.10705107	    -47.83207373	     45.63410927	     79.74484688	      5.65959884	     35.16032010	    -18.31395465	     -9.22402472	      1.13303805	     12.40137278	     -6.42742775	      1.35458781	     -0.87169602	     40.82432072	    -47.08890685	    -27.34694227	     75.09859491	     12.62425354	    -23.73928492	    -24.99999983
      1.50000000	      2.16027274	      0.74184518	     -0.45171023	     -0.15606554	      0.98692318	      0.00712622	     -8.29022355	     -0.22720788	    -10.77968601	      5.59779375	      3.38633287	     -0.18346752	     48.91635110	    -47.62973930	     43.38590500	     80.80444172	      6.13580774	     31.60671614	    -17.41496883	     -8.72865899	      0.85977112	     12.10025536	     -6.78875094	     -0.14355449	     -1.21517382	     41.58156496	    -46.63390227	    -25.94441450	     76.04109992	     10.75809474	    -20.32216094	    -24.99999983
      1.51000000	      2.15171461	      0.76143569	     -0.25213764	     -0.15620785	      0.98739783	      0.00705329	     -8.29655449	     -0.26310824	    -10.74498589	      5.53676668	      3.45556672	     -0.19983006	     48.93522951	    -47.53195780	     43.33658132	     80.87109853	      6.13243469	     31.61196572	    -17.41757108	     -8.73758931	      0.82226074	     12.08030949	     -6.73245014	     -0.09190154	     -1.20553336	     41.59122162	    -46.53828602	    -25.92452175	     76.10682493	     10.75421285	    -20.32275300	    -24.99999983
      1.52000000	      2.16481914	      0.71381553	     -0.31526116	     -0.15589514	      0.98703839	      0.00695633	     -8.43824842	     -0.29546093	    -10.88861925	      5.42313888	      3.65725881	     -0.21985156	     48.92248379	    -47.40117341	     43.02692384	     81.48280790	      6.11043111	     31.58511004	    -17.40564284	     -8.85489002	      0.82108710	     12.25116129	     -6.69029720	      0.00269415	     -1.20909040	     41.49427167	    -46.35804817	    -25.74327381	     76.71943901	     10.71302877	    -20.26091882	    -24.99999983
      1.53000000	      2.14983635	      0.74437741	     -0.08936329	     -0.15598110	      0.98757466	      0.00683747	     -8.44060929	     -0.34164641	    -10.84022642	      5.35089081	      3.73165406	     -0.23870099	     48.93628314	    -47.28076049	     42.96895655	     81.55797909	      6.10345737	     31.58296997	    -17.40561612	     -8.86359340	      0.77038655	     12.22042799	     -6.61774969	      0.06433122	     -1.19506550	     41.50974752	    -46.23711405	    -25.71786089	     76.79078854	     10.70669823	    -20.25633814	    -24.99999983
      1.54000000	      2.09291087	      0.74239631	     -0.86244202	     -0.15553943	      0.98769713	      0.00676838	     -8.62680058	     -0.73753639	    -10.98678264	      4.93592998	      3.84681931	     -0.18612366	     48.53098228	    -46.80703792	     41.72619059	     82.14609351	      5.84087456	     30.31317038	    -16.96643606	     -9.05335005	      0.41503814	     12.39920668	     -6.24319014	      0.16114476	     -1.24263329	     41.44503721	    -45.54080946	    -24.99437413	     77.35179177	     10.44823625	    -19.19385950	    -24.96863118
      1.55000000	      2.08849841	      0.70437806	     -0.60524298	     -0.15544810	      0.98784741	      0.00673064	     -8.64075644	     -0.72871029	    -10.96884627	      4.90641335	      3.94103198	     -0.20562716	     48.49628161	    -46.68766822	     41.58898698	     82.50734674	      5.81314838	     30.19819050	    -16.90098681	     -9.05232533	      0.42950235	     12.37926312	     -6.23775597	      0.20888817	     -1.22189328	     41.41579597	    -45.42286984	    -24.97134548	     77.69060135	     10.42427110	    -19.06015934	    -24.99999983
      1.56000000	      2.04379554	      0.69434103	     -0.49414784	     -0.15586758	      0.98705882	      0.00675465	     -8.16874539	     -0.34551165	    -10.41517771	      5.40692247	      3.59886706	     -0.27043969	     47.66992407	    -46.47806438	     39.46889661	     83.59449541	      5.19696062	     25.30082161	    -14.61062121	     -8.76343234	      0.62336238	     12.07413061	     -6.56123779	     -0.12765622	     -1.23524926	     41.39227206	    -44.95439340	    -23.76146612	     78.71664522	      9.91057829	    -14.73764711	    -23.34164833
      1.57000000	      2.08302795	      0.63796493	     -0.48957942	     -0.15558874	      0.98715922	      0.00654214	     -8.23466849	     -0.47161395	    -10.38998654	      5.20988851	      3.80173033	     -0.30523639	     47.72090126	    -46.24124756	     39.20276591	     83.93896411	      5.20633468	     25.25542672	    -14.56625149	     -8.80298459	      0.52176039	     12.08367812	     -6.44060454	     -0.06896345	     -1.23608431	     41.30925984	    -44.67315790	    -23.61923332	     79.10379022	      9.92694426	    -14.65990629	    -23.33796822
